<?xml version="1.0" encoding="UTF-8"?>
<svg xmlns="http://www.w3.org/2000/svg" xmlns:xlink="http://www.w3.org/1999/xlink" width="48px" height="48px" viewBox="0 0 48 48" version="1.1">
<g id="surface34023">
<path style=" stroke:none;fill-rule:nonzero;fill:rgb(100%,75.686275%,2.745098%);fill-opacity:1;" d="M 44 13 L 4 13 C 1.800781 13 0 14.800781 0 17 L 0 33 C 0 35.199219 1.800781 37 4 37 L 44 37 C 46.199219 37 48 35.199219 48 33 L 48 17 C 48 14.800781 46.199219 13 44 13 Z M 44 13 "/>
<path style=" stroke:none;fill-rule:nonzero;fill:rgb(14.901961%,19.607843%,21.960784%);fill-opacity:1;" d="M 28.101562 18 L 24.398438 18 L 24.398438 31.101562 L 28.101562 31.101562 C 30.101562 31.101562 30.898438 30.699219 31.398438 30.398438 C 32 30 32.300781 29.300781 32.300781 28.601562 L 32.300781 20.699219 C 32.300781 19.800781 31.898438 19 31.398438 18.699219 C 30.601562 18.199219 30.300781 18 28.101562 18 Z M 28.800781 28.300781 C 28.800781 28.898438 28.101562 28.898438 27.5 28.898438 L 27.5 20 C 28.101562 20 28.800781 20 28.800781 20.601562 Z M 33.800781 18 L 33.800781 31.300781 L 36.601562 31.300781 C 36.601562 31.300781 36.800781 30.398438 37 30.601562 C 37.398438 30.601562 38.5 31.199219 39.199219 31.199219 C 39.898438 31.199219 40.300781 31.199219 40.699219 31 C 41.300781 30.601562 41.398438 30.300781 41.398438 29.699219 L 41.398438 21.898438 C 41.398438 20.800781 40.300781 20.101562 39.398438 20.101562 C 38.5 20.101562 37.601562 20.699219 37.199219 21 L 37.199219 18 Z M 37.398438 22.199219 C 37.398438 21.800781 37.398438 21.601562 37.800781 21.601562 C 38 21.601562 38.199219 21.800781 38.199219 22.199219 L 38.199219 28.800781 C 38.199219 29.199219 38.199219 29.398438 37.800781 29.398438 C 37.601562 29.398438 37.398438 29.199219 37.398438 28.800781 Z M 22.699219 31.300781 L 22.699219 18 L 18.300781 18 L 17.5 24.300781 L 16.398438 18 L 12.398438 18 L 12.398438 31.300781 L 15.300781 31.300781 L 15.300781 23.898438 L 16.601562 31.300781 L 18.601562 31.300781 L 19.898438 23.898438 L 19.898438 31.300781 Z M 7.601562 18 L 10.699219 18 L 10.699219 31.300781 L 7.601562 31.300781 Z M 7.601562 18 "/>
</g>
</svg>
